<?xml version="1.0" encoding="UTF-8"?>
<svg xmlns="http://www.w3.org/2000/svg" width="93" height="93" viewBox="0 0 93 93" fill="none">
  <path d="M46.8993 1.20255L86.4738 23.7503V68.8457L46.8993 91.3934L7.32479 68.8457V23.7503L46.8993 1.20255Z" fill="#F0F0F0"></path>
  <path opacity="0.2" d="M46.298 0L86.3932 23.149V69.4469L46.298 92.5959L6.20275 69.4469V23.149L46.298 0Z" fill="url(#paint0_linear_3_271)"></path>
  <path d="M46.298 3.60764L83.2689 24.9528V67.6431L46.298 88.9883L9.32706 67.6431V24.9528L46.298 3.60764Z" fill="#F0F0F0"></path>
  <path d="M46.298 8.41782L79.1032 27.3579V65.238L46.298 84.1781L13.4928 65.238V27.3579L46.298 8.41782Z" fill="white"></path>
  <path fill-rule="evenodd" clip-rule="evenodd" d="M46.298 1.20255L85.3807 23.7503V68.8457L46.298 91.3934L7.21526 68.8457V23.7503L46.298 1.20255ZM81.458 26.0133L46.298 5.72867L11.1379 26.0133V66.5826L46.298 86.8673L81.458 66.5826V26.0133Z" fill="white"></path>
  <path d="M1 56.889H91.857L87.1166 65.5797L91.857 73.6778H1L6.1354 65.3822L1 56.889Z" fill="white"></path>
  <path d="M1 56.889H91.857L87.1166 65.5797L91.857 73.6778H1L6.1354 65.3822L1 56.889Z" fill="#DAA521"></path>
  <path d="M31.5039 65.0183C31.9223 65.1075 32.2584 65.3167 32.5122 65.6459C32.766 65.9683 32.8929 66.3387 32.8929 66.7571C32.8929 67.3606 32.6802 67.8408 32.255 68.1974C31.8366 68.5472 31.2501 68.7222 30.4957 68.7222H27.1313V61.4997H30.3825C31.1164 61.4997 31.6891 61.6677 32.1007 62.0038C32.5191 62.3399 32.7283 62.796 32.7283 63.3722C32.7283 63.7974 32.6151 64.1507 32.3887 64.4319C32.1692 64.7131 31.8743 64.9086 31.5039 65.0183ZM28.8907 64.4216H30.043C30.331 64.4216 30.5505 64.3599 30.7014 64.2364C30.8592 64.1061 30.9381 63.9175 30.9381 63.6705C30.9381 63.4236 30.8592 63.235 30.7014 63.1047C30.5505 62.9743 30.331 62.9092 30.043 62.9092H28.8907V64.4216ZM30.187 67.3023C30.4819 67.3023 30.7083 67.2372 30.866 67.1069C31.0307 66.9697 31.113 66.7742 31.113 66.5204C31.113 66.2666 31.0272 66.0677 30.8558 65.9237C30.6911 65.7797 30.4614 65.7076 30.1664 65.7076H28.8907V67.3023H30.187ZM37.5965 68.7222L36.0944 65.9957H35.6726V68.7222H33.9133V61.4997H36.8661C37.4353 61.4997 37.9189 61.5991 38.3167 61.798C38.7214 61.9969 39.0232 62.2713 39.2221 62.6211C39.421 62.9641 39.5205 63.3482 39.5205 63.7734C39.5205 64.2535 39.3833 64.6822 39.1089 65.0595C38.8414 65.4367 38.4436 65.7042 37.9155 65.862L39.5822 68.7222H37.5965ZM35.6726 64.7508H36.7632C37.0855 64.7508 37.3256 64.6719 37.4834 64.5142C37.648 64.3564 37.7303 64.1335 37.7303 63.8454C37.7303 63.5711 37.648 63.355 37.4834 63.1973C37.3256 63.0395 37.0855 62.9606 36.7632 62.9606H35.6726V64.7508ZM44.0406 68.7942C43.3616 68.7942 42.7374 68.6364 42.1681 68.3209C41.6057 68.0054 41.1564 67.5664 40.8203 67.004C40.4911 66.4347 40.3265 65.7968 40.3265 65.0903C40.3265 64.3839 40.4911 63.7494 40.8203 63.187C41.1564 62.6245 41.6057 62.1856 42.1681 61.8701C42.7374 61.5545 43.3616 61.3968 44.0406 61.3968C44.7197 61.3968 45.3404 61.5545 45.9028 61.8701C46.4721 62.1856 46.918 62.6245 47.2403 63.187C47.5696 63.7494 47.7342 64.3839 47.7342 65.0903C47.7342 65.7968 47.5696 66.4347 47.2403 67.004C46.9111 67.5664 46.4653 68.0054 45.9028 68.3209C45.3404 68.6364 44.7197 68.7942 44.0406 68.7942ZM44.0406 67.1892C44.6168 67.1892 45.0763 66.9971 45.4193 66.613C45.7691 66.2289 45.944 65.7214 45.944 65.0903C45.944 64.4525 45.7691 63.9449 45.4193 63.5676C45.0763 63.1835 44.6168 62.9915 44.0406 62.9915C43.4576 62.9915 42.9912 63.1801 42.6414 63.5574C42.2985 63.9346 42.127 64.4456 42.127 65.0903C42.127 65.7282 42.2985 66.2392 42.6414 66.6233C42.9912 67.0006 43.4576 67.1892 44.0406 67.1892ZM55.1741 68.7222H53.4148L50.4723 64.2673V68.7222H48.7129V61.4997H50.4723L53.4148 65.9751V61.4997H55.1741V68.7222ZM58.3219 67.2818H61.429V68.7222H56.3259V67.3847L59.4124 62.9401H56.3259V61.4997H61.429V62.8372L58.3219 67.2818ZM64.3375 62.9092V64.3701H66.6936V65.7282H64.3375V67.3126H67.0022V68.7222H62.5782V61.4997H67.0022V62.9092H64.3375Z" fill="#091E42"></path>
  <path d="M21.3473 49.069H19.4013L19.0793 50H18.0503L19.8073 45.107H20.9483L22.7053 50H21.6693L21.3473 49.069ZM21.0813 48.285L20.3743 46.241L19.6673 48.285H21.0813ZM26.344 46.584C26.232 46.3787 26.078 46.2223 25.882 46.115C25.686 46.0077 25.4574 45.954 25.196 45.954C24.9067 45.954 24.65 46.0193 24.426 46.15C24.202 46.2807 24.027 46.4673 23.901 46.71C23.775 46.9527 23.712 47.2327 23.712 47.55C23.712 47.8767 23.775 48.1613 23.901 48.404C24.0317 48.6467 24.2114 48.8333 24.44 48.964C24.6687 49.0947 24.9347 49.16 25.238 49.16C25.6114 49.16 25.917 49.062 26.155 48.866C26.393 48.6653 26.5494 48.3877 26.624 48.033H24.944V47.284H27.59V48.138C27.5247 48.4787 27.3847 48.7937 27.17 49.083C26.9554 49.3723 26.6777 49.6057 26.337 49.783C26.001 49.9557 25.623 50.042 25.203 50.042C24.7317 50.042 24.3047 49.937 23.922 49.727C23.544 49.5123 23.2454 49.216 23.026 48.838C22.8114 48.46 22.704 48.0307 22.704 47.55C22.704 47.0693 22.8114 46.64 23.026 46.262C23.2454 45.8793 23.544 45.583 23.922 45.373C24.3047 45.1583 24.7294 45.051 25.196 45.051C25.7467 45.051 26.225 45.1863 26.631 45.457C27.037 45.723 27.317 46.0987 27.471 46.584H26.344ZM29.0151 45.905V47.13H30.6601V47.907H29.0151V49.202H30.8701V50H28.0351V45.107H30.8701V45.905H29.0151ZM35.6597 50H34.6797L32.4607 46.647V50H31.4807V45.107H32.4607L34.6797 48.467V45.107H35.6597V50ZM36.1101 47.55C36.1101 47.0693 36.2175 46.64 36.4321 46.262C36.6515 45.8793 36.9478 45.583 37.3211 45.373C37.6991 45.1583 38.1215 45.051 38.5881 45.051C39.1341 45.051 39.6125 45.191 40.0231 45.471C40.4338 45.751 40.7208 46.1383 40.8841 46.633H39.7571C39.6451 46.3997 39.4865 46.2247 39.2811 46.108C39.0805 45.9913 38.8471 45.933 38.5811 45.933C38.2965 45.933 38.0421 46.0007 37.8181 46.136C37.5988 46.2667 37.4261 46.4533 37.3001 46.696C37.1788 46.9387 37.1181 47.2233 37.1181 47.55C37.1181 47.872 37.1788 48.1567 37.3001 48.404C37.4261 48.6467 37.5988 48.8357 37.8181 48.971C38.0421 49.1017 38.2965 49.167 38.5811 49.167C38.8471 49.167 39.0805 49.1087 39.2811 48.992C39.4865 48.8707 39.6451 48.6933 39.7571 48.46H40.8841C40.7208 48.9593 40.4338 49.349 40.0231 49.629C39.6171 49.9043 39.1388 50.042 38.5881 50.042C38.1215 50.042 37.6991 49.937 37.3211 49.727C36.9478 49.5123 36.6515 49.216 36.4321 48.838C36.2175 48.46 36.1101 48.0307 36.1101 47.55ZM45.0462 45.114L43.3942 48.299V50H42.4142V48.299L40.7552 45.114H41.8612L42.9112 47.347L43.9542 45.114H45.0462ZM50.2823 46.626C50.2823 46.8873 50.2193 47.1323 50.0933 47.361C49.972 47.5897 49.7783 47.774 49.5123 47.914C49.251 48.054 48.9197 48.124 48.5183 48.124H47.6993V50H46.7193V45.114H48.5183C48.8963 45.114 49.2183 45.1793 49.4843 45.31C49.7503 45.4407 49.9487 45.6203 50.0793 45.849C50.2147 46.0777 50.2823 46.3367 50.2823 46.626ZM48.4763 47.333C48.747 47.333 48.9477 47.2723 49.0783 47.151C49.209 47.025 49.2743 46.85 49.2743 46.626C49.2743 46.15 49.0083 45.912 48.4763 45.912H47.6993V47.333H48.4763ZM52.9941 49.069H51.0481L50.7261 50H49.6971L51.4541 45.107H52.5951L54.3521 50H53.3161L52.9941 49.069ZM52.7281 48.285L52.0211 46.241L51.3141 48.285H52.7281ZM57.2489 50L56.1709 48.096H55.7089V50H54.7289V45.114H56.5629C56.9409 45.114 57.2629 45.1817 57.5289 45.317C57.7949 45.4477 57.9932 45.6273 58.1239 45.856C58.2592 46.08 58.3269 46.332 58.3269 46.612C58.3269 46.934 58.2335 47.2257 58.0469 47.487C57.8602 47.7437 57.5825 47.921 57.2139 48.019L58.3829 50H57.2489ZM55.7089 47.361H56.5279C56.7939 47.361 56.9922 47.298 57.1229 47.172C57.2535 47.0413 57.3189 46.8617 57.3189 46.633C57.3189 46.409 57.2535 46.2363 57.1229 46.115C56.9922 45.989 56.7939 45.926 56.5279 45.926H55.7089V47.361ZM61.9783 45.114V45.905H60.6763V50H59.6963V45.905H58.3942V45.114H61.9783ZM66.5923 50H65.6123L63.3933 46.647V50H62.4133V45.107H63.3933L65.6123 48.467V45.107H66.5923V50ZM68.2608 45.905V47.13H69.9058V47.907H68.2608V49.202H70.1158V50H67.2808V45.107H70.1158V45.905H68.2608ZM73.2463 50L72.1683 48.096H71.7063V50H70.7263V45.114H72.5603C72.9383 45.114 73.2603 45.1817 73.5263 45.317C73.7923 45.4477 73.9907 45.6273 74.1213 45.856C74.2567 46.08 74.3243 46.332 74.3243 46.612C74.3243 46.934 74.231 47.2257 74.0443 47.487C73.8577 47.7437 73.58 47.921 73.2113 48.019L74.3803 50H73.2463ZM71.7063 47.361H72.5253C72.7913 47.361 72.9897 47.298 73.1203 47.172C73.251 47.0413 73.3163 46.8617 73.3163 46.633C73.3163 46.409 73.251 46.2363 73.1203 46.115C72.9897 45.989 72.7913 45.926 72.5253 45.926H71.7063V47.361Z" fill="#253858"></path>
  <path d="M29.5814 30.4056C28.609 30.4056 28.1599 31.1263 28.1599 31.8229C28.1599 32.5191 28.5842 33.2156 29.5814 33.2156C29.9433 33.2156 30.3297 33.0668 30.6046 32.8053L31.028 33.2156C30.6294 33.6009 30.1174 33.7879 29.5813 33.7879C28.1845 33.7879 27.561 32.8301 27.561 31.8229C27.561 30.8156 28.2093 29.8213 29.5813 29.8213C30.0925 29.8213 30.5916 30.0081 30.991 30.4056L30.5796 30.8037C30.3048 30.5295 29.9433 30.4056 29.5814 30.4056ZM31.3777 33.7006V29.8709H32.0007V33.1281H34.021V33.7005H31.3777V33.7006ZM36.3793 33.7879C35.0441 33.7879 34.4077 32.8173 34.4077 31.8099C34.4077 30.6417 35.2308 29.8083 36.3793 29.8083C37.7005 29.8083 38.3482 30.7659 38.3482 31.8099C38.3482 32.8422 37.7113 33.7879 36.3793 33.7879ZM36.3902 30.3684C35.5057 30.3684 35.0193 30.9893 35.0193 31.8228C35.0313 32.4943 35.4306 33.2273 36.3793 33.2273C37.3386 33.2273 37.7372 32.556 37.7372 31.8228C37.7372 31.1137 37.326 30.3806 36.3902 30.3684ZM40.3425 33.7747C39.4826 33.7499 38.7595 33.2025 38.7595 32.1207V29.8829H39.3722V32.1207C39.3722 32.8173 39.7818 33.1908 40.3424 33.2156C40.9549 33.2522 41.4035 32.8549 41.4035 32.1207V29.8829H42.0142V32.1207C42.0143 33.2522 41.2653 33.8126 40.3425 33.7747ZM44.0477 33.7006C43.5866 33.7006 43.0493 33.7006 42.5884 33.7006V29.8709H44.0477C45.358 29.8709 45.9556 30.8036 45.9669 31.7484C45.9928 32.7181 45.3816 33.7006 44.0477 33.7006ZM44.0477 30.455H43.199V33.1161H44.0477C44.9814 33.1161 45.3816 32.4321 45.3689 31.7484C45.358 31.1017 44.9573 30.455 44.0477 30.455ZM50.4577 33.7128H49.908L49.3968 32.3572L48.9852 31.0766L48.561 32.3703L48.063 33.713H47.5278L46.1293 29.883H46.8156L47.7897 32.8301L48.7864 29.883H49.1848L50.1959 32.8301L51.1557 29.883H51.8418L50.4577 33.7128ZM55.1707 33.7128L54.7977 32.9045H52.7148L52.3529 33.7128H51.7051L53.4249 29.8829H54.0985L55.8198 33.7128H55.1707ZM53.7607 30.5175L52.9525 32.3455H54.5726L53.7607 30.5175ZM57.5158 32.1339V33.7006H56.9049V32.1339L55.4215 29.8959V29.8709H56.1558L57.2037 31.5615L58.2998 29.8709H59.0379V29.8959L57.5158 32.1339ZM60.8832 30.3059C60.3701 30.3059 59.9976 30.5175 59.9976 30.8902C59.9976 31.2636 60.422 31.3634 60.9309 31.4373C61.7171 31.5499 62.4793 31.7603 62.4793 32.6184C62.4793 33.4769 61.6929 33.7995 60.8832 33.7995C60.147 33.7995 59.5858 33.576 59.2369 32.9295L59.6984 32.6183C59.9718 33.0781 60.4462 33.2521 60.894 33.2521C61.3554 33.2521 61.8684 33.1033 61.8684 32.6183C61.8684 32.208 61.4182 32.0592 60.8832 31.9844C60.1228 31.8851 59.3998 31.6856 59.3998 30.8653C59.3998 30.0696 60.1838 29.7714 60.8832 29.7714C61.4309 29.7714 61.9922 29.9075 62.317 30.418L61.8317 30.729C61.6432 30.468 61.2817 30.3059 60.8832 30.3059Z" fill="#2F39BF"></path>
  <path d="M46.0761 35.1865C45.8427 35.0227 45.5538 34.938 45.2148 34.938H44.4813V37.3108H45.2148C45.5538 37.3108 45.8427 37.2204 46.0761 37.0509C46.204 36.9605 46.3039 36.8306 46.3706 36.6723C46.4373 36.5142 46.4762 36.3221 46.4762 36.113C46.4762 35.9041 46.4429 35.7176 46.3706 35.5594C46.3039 35.4012 46.204 35.2769 46.0761 35.1865ZM44.9092 35.3447H45.1425C45.3982 35.3447 45.6093 35.3956 45.7705 35.4973C45.9483 35.6046 46.0372 35.8137 46.0372 36.113C46.0372 36.4238 45.9483 36.6385 45.7705 36.7571C45.6149 36.8588 45.4092 36.9153 45.1481 36.9153H44.9147V35.3447H44.9092Z" fill="#2F39BF"></path>
  <path d="M46.9202 34.9154C46.8481 34.9154 46.7871 34.9436 46.7428 34.9886C46.6929 35.0394 46.6707 35.0957 46.6707 35.1691C46.6707 35.2423 46.6984 35.3044 46.7428 35.3551C46.7927 35.4058 46.8536 35.4284 46.9257 35.4284C46.9978 35.4284 47.0588 35.4002 47.1087 35.3551C47.1586 35.3044 47.1807 35.2423 47.1807 35.1691C47.1807 35.0957 47.153 35.0338 47.1087 34.9886C47.0532 34.9379 46.9923 34.9154 46.9202 34.9154Z" fill="#2F39BF"></path>
  <path d="M47.1207 35.6442H46.7094V37.3165H47.1207V35.6442Z" fill="#2F39BF"></path>
  <path d="M48.5545 35.7854C48.4323 35.6724 48.2933 35.6046 48.1378 35.6046C47.9099 35.6046 47.7209 35.6836 47.5765 35.8419C47.4264 36 47.3542 36.1978 47.3542 36.4408C47.3542 36.678 47.4264 36.8757 47.571 37.0396C47.7155 37.1978 47.9099 37.2769 48.1378 37.2769C48.2989 37.2769 48.4323 37.2317 48.5433 37.1413V37.1808C48.5433 37.322 48.5045 37.4295 48.4323 37.5029C48.36 37.5763 48.26 37.6159 48.1378 37.6159C47.9488 37.6159 47.8265 37.5425 47.6821 37.3391L47.3986 37.6159L47.4042 37.6272C47.4654 37.712 47.5598 37.7967 47.6821 37.8815C47.8043 37.9605 47.9599 38 48.1432 38C48.3878 38 48.5879 37.9209 48.7323 37.774C48.8768 37.6216 48.9546 37.4181 48.9546 37.1696V35.6442H48.5489V35.7854H48.5545ZM48.4433 36.7684C48.3711 36.8532 48.2766 36.8928 48.16 36.8928C48.0432 36.8928 47.9488 36.8532 47.8765 36.7684C47.8043 36.6837 47.7709 36.5764 47.7709 36.4408C47.7709 36.3051 47.8043 36.1921 47.8765 36.1074C47.9488 36.0226 48.0432 35.9831 48.16 35.9831C48.2766 35.9831 48.3711 36.0226 48.4433 36.1074C48.5155 36.1921 48.5545 36.2996 48.5545 36.4408C48.5545 36.5764 48.5155 36.6837 48.4433 36.7684Z" fill="#2F39BF"></path>
  <path d="M49.6548 35.6442H49.2435V37.3165H49.6548V35.6442Z" fill="#2F39BF"></path>
  <path d="M49.4542 34.9154C49.3821 34.9154 49.3211 34.9436 49.2768 34.9886C49.2268 35.0394 49.2047 35.0957 49.2047 35.1691C49.2047 35.2423 49.2324 35.3044 49.2768 35.3551C49.3267 35.4058 49.3876 35.4284 49.4597 35.4284C49.5318 35.4284 49.5928 35.4002 49.6427 35.3551C49.6926 35.3044 49.7147 35.2423 49.7147 35.1691C49.7147 35.0957 49.687 35.0338 49.6427 34.9886C49.5816 34.9379 49.5207 34.9154 49.4542 34.9154Z" fill="#2F39BF"></path>
  <path d="M50.5382 35.1921H50.1325V35.644H49.8992V36.0282H50.1381V36.7231C50.1381 36.9378 50.1825 37.0961 50.2659 37.1863C50.3493 37.2768 50.4994 37.322 50.7105 37.322C50.7771 37.322 50.8439 37.322 50.9105 37.3164H50.9272V36.9321L50.7827 36.9378C50.6827 36.9378 50.616 36.9209 50.5882 36.887C50.5548 36.853 50.5382 36.7796 50.5382 36.6667V36.0282H50.9217V35.644H50.5382V35.1921Z" fill="#2F39BF"></path>
  <path d="M53.1722 34.9436H52.7611V37.3165H53.1722V34.9436Z" fill="#2F39BF"></path>
  <path d="M57.2289 36.7176C57.1567 36.8024 57.0789 36.8758 57.0233 36.9154C56.9677 36.955 56.8955 36.9719 56.8066 36.9719C56.6844 36.9719 56.5843 36.9267 56.5065 36.8363C56.4287 36.7459 56.3843 36.6272 56.3843 36.486C56.3843 36.3447 56.4231 36.2261 56.501 36.1358C56.5788 36.0453 56.6788 36.0001 56.801 36.0001C56.9344 36.0001 57.0733 36.0848 57.1955 36.2261L57.4678 35.9606C57.29 35.7233 57.0621 35.6159 56.7899 35.6159C56.5621 35.6159 56.3675 35.7007 56.2065 35.8645C56.0453 36.0283 55.9674 36.2374 55.9674 36.486C55.9674 36.7345 56.0508 36.9436 56.2065 37.1074C56.3675 37.2712 56.5621 37.356 56.7899 37.356C57.0899 37.356 57.329 37.2261 57.4956 36.9832L57.2289 36.7176Z" fill="#2F39BF"></path>
  <path d="M58.9401 35.8758C58.8789 35.7911 58.8011 35.7232 58.701 35.6781C58.601 35.6271 58.4899 35.6046 58.3621 35.6046C58.1287 35.6046 57.9454 35.6893 57.8009 35.8645C57.6619 36.034 57.5953 36.2431 57.5953 36.4916C57.5953 36.7459 57.6731 36.9548 57.8232 37.1131C57.9732 37.2712 58.1732 37.3503 58.4177 37.3503C58.6956 37.3503 58.9233 37.2373 59.0957 37.0113L59.1067 37.0001L58.8344 36.7345C58.8122 36.7628 58.7734 36.8023 58.74 36.8306C58.701 36.8701 58.6622 36.8983 58.6178 36.921C58.5566 36.9548 58.4844 36.9662 58.4066 36.9662C58.2899 36.9662 58.1955 36.9322 58.1232 36.8645C58.0565 36.8023 58.0176 36.7176 58.0065 36.6103H59.1011L59.1067 36.4577C59.1067 36.3504 59.0901 36.2431 59.0623 36.147C59.0401 36.0509 58.9957 35.9606 58.9401 35.8758ZM58.0343 36.2713C58.0565 36.1921 58.0898 36.1244 58.1399 36.0736C58.1955 36.0171 58.2677 35.9888 58.3565 35.9888C58.4566 35.9888 58.5344 36.0171 58.5844 36.0736C58.6344 36.1244 58.6622 36.1921 58.6678 36.2713H58.0343Z" fill="#2F39BF"></path>
  <path d="M60.5181 35.7684C60.3903 35.6611 60.2181 35.6046 60.0014 35.6046C59.8625 35.6046 59.7347 35.6328 59.618 35.695C59.5124 35.7515 59.4068 35.8419 59.3402 35.9606L59.3458 35.9661L59.6125 36.226C59.7235 36.0509 59.8403 35.9888 60.0014 35.9888C60.0904 35.9888 60.157 36.0114 60.2126 36.0565C60.2681 36.1018 60.2959 36.1639 60.2959 36.2374V36.3165C60.1959 36.2825 60.0904 36.2713 59.9903 36.2713C59.7847 36.2713 59.618 36.3221 59.4902 36.4181C59.3624 36.5142 59.3012 36.6554 59.3012 36.8363C59.3012 36.9944 59.3568 37.1188 59.4624 37.2147C59.568 37.3051 59.7013 37.3503 59.8625 37.3503C60.018 37.3503 60.1681 37.2882 60.3015 37.1753V37.3108H60.7072V36.2374C60.7072 36.034 60.646 35.8758 60.5181 35.7684ZM59.7847 36.6723C59.8291 36.6385 59.8958 36.6215 59.9792 36.6215C60.0792 36.6215 60.1848 36.6441 60.2903 36.6837V36.8475C60.2014 36.9322 60.0792 36.9775 59.9347 36.9775C59.8625 36.9775 59.8069 36.9605 59.7681 36.9266C59.7291 36.8928 59.7125 36.8532 59.7125 36.8023C59.7181 36.7515 59.7403 36.7063 59.7847 36.6723Z" fill="#2F39BF"></path>
  <path d="M62.2463 35.8023C62.1296 35.6724 61.9685 35.6046 61.7628 35.6046C61.6018 35.6046 61.4684 35.6498 61.3683 35.7458V35.6442H60.9626V37.3165H61.3739V36.3898C61.3739 36.2656 61.4017 36.1639 61.4628 36.0905C61.5184 36.0171 61.6018 35.9831 61.7073 35.9831C61.8018 35.9831 61.874 36.0114 61.9241 36.0791C61.9741 36.1413 62.0019 36.2317 62.0019 36.3447V37.3108H62.413V36.3447C62.4186 36.113 62.3574 35.9323 62.2463 35.8023Z" fill="#2F39BF"></path>
  <path d="M52.3108 35.7684C52.183 35.6611 52.0107 35.6046 51.7939 35.6046C51.6551 35.6046 51.5272 35.6328 51.4106 35.695C51.305 35.7515 51.1994 35.8419 51.1327 35.9606L51.1383 35.9661L51.405 36.226C51.5162 36.0509 51.6328 35.9888 51.7939 35.9888C51.8829 35.9888 51.9495 36.0114 52.0051 36.0565C52.0607 36.1018 52.0885 36.1639 52.0885 36.2374V36.3165C51.9885 36.2825 51.8829 36.2713 51.7829 36.2713C51.5772 36.2713 51.4106 36.3221 51.2828 36.4181C51.1549 36.5142 51.0939 36.6554 51.0939 36.8363C51.0939 36.9944 51.1493 37.1188 51.255 37.2147C51.3606 37.3051 51.494 37.3503 51.6551 37.3503C51.8107 37.3503 51.9607 37.2882 52.094 37.1753V37.3108H52.4997V36.2374C52.4997 36.034 52.4386 35.8758 52.3108 35.7684ZM51.5772 36.6723C51.6217 36.6385 51.6884 36.6215 51.7717 36.6215C51.8717 36.6215 51.9773 36.6441 52.083 36.6837V36.8475C51.994 36.9322 51.8717 36.9775 51.7273 36.9775C51.6551 36.9775 51.5995 36.9605 51.5606 36.9266C51.5216 36.8928 51.505 36.8532 51.505 36.8023C51.5106 36.7515 51.5328 36.7063 51.5772 36.6723Z" fill="#2F39BF"></path>
  <path d="M54.6004 37.3505C53.9391 37.3505 53.4001 36.8025 53.4001 36.1303C53.4001 35.4578 53.9391 34.9099 54.6004 34.9099C55.2616 34.9099 55.8006 35.4578 55.8006 36.1303C55.8006 36.8025 55.2672 37.3505 54.6004 37.3505ZM54.6004 35.3336C54.1725 35.3336 53.8224 35.6895 53.8224 36.1246C53.8224 36.5595 54.1725 36.9155 54.6004 36.9155C55.0282 36.9155 55.3783 36.5595 55.3783 36.1246C55.3783 35.6895 55.0338 35.3336 54.6004 35.3336Z" fill="#2F39BF"></path>
  <path d="M42.0681 37.3367C41.9555 37.3367 41.8655 37.3006 41.7982 37.2282V37.315H41.5806V35.9315H41.802V36.419C41.8745 36.3558 41.9633 36.3242 42.0681 36.3242C42.2041 36.3242 42.3154 36.3722 42.4022 36.4683C42.489 36.5644 42.5323 36.6854 42.5323 36.8315C42.5323 36.9775 42.489 37.0985 42.4022 37.1946C42.3142 37.2894 42.2028 37.3367 42.0681 37.3367ZM41.8661 37.0525C41.9114 37.1104 41.9736 37.1394 42.0526 37.1394C42.1316 37.1394 42.1938 37.1104 42.2391 37.0525C42.2843 36.9947 42.307 36.9209 42.307 36.8315C42.307 36.742 42.2843 36.6683 42.2391 36.6104C42.1938 36.5526 42.1316 36.5236 42.0526 36.5236C41.9736 36.5236 41.9114 36.5526 41.8661 36.6104C41.8209 36.6683 41.7982 36.742 41.7982 36.8315C41.7982 36.9209 41.8209 36.9947 41.8661 37.0525ZM43.6253 36.3479L43.0931 37.6979H42.8601L43.0077 37.3269L42.6309 36.3479H42.8834L43.132 37.0466L43.3845 36.3479H43.6253Z" fill="#2F39BF"></path>
  <path fill-rule="evenodd" clip-rule="evenodd" d="M42.8566 26.1991C42.7754 26.1112 42.7088 26.042 42.6455 25.9699C42.4058 25.6965 42.2115 25.3927 42.0679 25.0567C42.0449 25.0028 42.0167 24.9833 41.9583 24.9843C41.7511 24.9881 41.5437 24.9864 41.3364 24.9856C41.1536 24.985 41.0567 24.8921 41.0513 24.7072C41.0476 24.5834 41.0475 24.4593 41.0514 24.3355C41.0573 24.1536 41.153 24.0626 41.3319 24.0623C41.4814 24.062 41.631 24.0623 41.7901 24.0623C41.7527 23.648 41.7593 23.2448 41.8468 22.8335C41.801 22.8335 41.7658 22.8335 41.7305 22.8335C39.8936 22.8335 38.0568 22.8336 36.2199 22.8334C35.9698 22.8334 35.7844 22.6848 35.7391 22.4497C35.6856 22.172 35.894 21.9067 36.1745 21.8959C36.203 21.8948 36.2315 21.8955 36.26 21.8955C38.2057 21.8955 40.1514 21.8951 42.0971 21.8972C42.1689 21.8973 42.2067 21.874 42.2422 21.8116C42.4812 21.3907 42.7951 21.0368 43.1805 20.749C43.2007 20.7339 43.22 20.7175 43.2375 20.6823C43.206 20.6823 43.1745 20.6823 43.1429 20.6823C41.661 20.6823 40.1791 20.6832 38.697 20.68C38.6066 20.6798 38.5086 20.6636 38.427 20.6259C38.2337 20.5366 38.1377 20.3114 38.1864 20.1026C38.2345 19.8962 38.4223 19.7448 38.6344 19.7446C39.2872 19.7439 39.9401 19.7443 40.593 19.7443C41.7874 19.7443 42.9817 19.7437 44.1761 19.746C44.246 19.7461 44.28 19.7287 44.3035 19.6578C44.4248 19.291 44.6013 18.9523 44.8225 18.6376C44.8431 18.6084 44.8631 18.5787 44.8928 18.5354C44.844 18.5331 44.8095 18.5301 44.775 18.5301C43.0419 18.5298 41.3086 18.5309 39.5754 18.5272C39.4779 18.527 39.3713 18.5069 39.2849 18.4633C39.0991 18.3695 39.0134 18.1446 39.0662 17.946C39.1237 17.7296 39.2994 17.593 39.5239 17.593C41.6173 17.5928 43.7107 17.5926 45.8041 17.594C45.8715 17.594 45.9281 17.5782 45.9859 17.5427C46.5224 17.213 47.1032 17.0296 47.7299 16.9879C49.5527 16.8664 51.1845 18.0852 51.6975 19.8532C51.7267 19.9539 51.7539 20.0558 51.7731 20.1589C51.7833 20.2133 51.8051 20.2372 51.8564 20.2555C52.9926 20.6603 53.7472 21.4503 54.0815 22.6232C54.6196 24.5108 53.5631 26.4474 51.7657 26.9869C51.4838 27.0716 51.1955 27.1198 50.9019 27.1214C49.5762 27.1288 48.2504 27.1359 46.9247 27.1371C44.3028 27.1395 41.6809 27.1381 39.0591 27.1361C38.9806 27.136 38.8969 27.1249 38.8247 27.0957C38.6209 27.0132 38.5144 26.7973 38.555 26.5748C38.593 26.3658 38.7795 26.2069 38.9963 26.1992C39.0195 26.1984 39.0428 26.199 39.0662 26.199C40.289 26.199 41.5119 26.199 42.7348 26.199C42.7678 26.1991 42.8008 26.1991 42.8566 26.1991Z" fill="#2F39BF"></path>
  <path fill-rule="evenodd" clip-rule="evenodd" d="M37.9538 24.9858C37.4258 24.9858 36.8977 24.9859 36.3696 24.9858C36.156 24.9857 36.0657 24.8958 36.0648 24.6812C36.0642 24.5573 36.0627 24.4335 36.0664 24.3097C36.0708 24.1642 36.1719 24.063 36.3154 24.0629C37.4103 24.062 38.5053 24.062 39.6003 24.063C39.744 24.0632 39.8472 24.1687 39.8517 24.3191C39.8559 24.4612 39.856 24.6037 39.8518 24.7458C39.8477 24.8875 39.7331 24.9853 39.5769 24.9856C39.2145 24.9864 38.852 24.9859 38.4897 24.9859C38.311 24.9858 38.1325 24.9858 37.9538 24.9858Z" fill="#2F39BF"></path>
  <defs>
    <linearGradient id="paint0_linear_3_271" x1="-9.1193" y1="-9.06668" x2="109.382" y2="88.2869" gradientUnits="userSpaceOnUse">
      <stop stop-color="#ADE6FF"></stop>
      <stop offset="1" stop-color="#5464F5"></stop>
    </linearGradient>
  </defs>
</svg>
