<svg xmlns="http://www.w3.org/2000/svg" viewBox="0 0 64 64">
  <rect width="64" height="64" rx="14" fill="#16B595"/>
  <g fill="#FAFBFC">
    <rect x="8" y="20" width="14" height="3.4" rx="1.7"/>
    <rect x="6" y="28" width="18" height="3.4" rx="1.7"/>
    <rect x="10" y="36" width="11" height="3.4" rx="1.7"/>
    <rect x="6" y="44" width="14" height="3.4" rx="1.7"/>
    <path d="M44 14 c-9 0-15 5-15 12 0 7 5 9 14 11 7 1.5 10 3 10 7 0 4-4 6-10 6-6 0-10-2-13-5 l-3 5 c4 4 9 6 16 6 11 0 17-5 17-13 0-7-4-9-14-11-8-2-11-3-11-7 0-3 3-5 9-5 5 0 9 1 12 4 l3-5 c-4-3-9-5-15-5z"/>
  </g>
</svg>
